<?xml version="1.0" encoding="UTF-8"?>
<svg id="Layer_1" xmlns="http://www.w3.org/2000/svg" version="1.1" viewBox="0 0 1440 980">
  <!-- Generator: Adobe Illustrator 30.4.0, SVG Export Plug-In . SVG Version: 2.1.4 Build 226)  -->
  <defs>
    <style>
      .st0 {
        stroke-dasharray: 12 12;
      }

      .st0, .st1, .st2, .st3, .st4, .st5, .st6, .st7 {
        fill: none;
      }

      .st0, .st8, .st4, .st6, .st7 {
        stroke: #22232a;
      }

      .st0, .st3, .st4, .st7 {
        stroke-width: 2px;
      }

      .st9, .st10, .st11, .st12, .st13, .st14, .st15 {
        font-size: 12px;
      }

      .st9, .st16 {
        fill: #fff;
      }

      .st9, .st11, .st17, .st12, .st18, .st13, .st14, .st19, .st15 {
        isolation: isolate;
      }

      .st9, .st11, .st13, .st14, .st19, .st15 {
        font-family: ArialMT, Arial;
      }

      .st10, .st17, .st12, .st20, .st13, .st21 {
        fill: #243b53;
      }

      .st10, .st17, .st12, .st20, .st21 {
        font-family: Arial-BoldMT, Arial;
        font-weight: 700;
      }

      .st16 {
        stroke-width: 1.4px;
      }

      .st16, .st2, .st5 {
        stroke: #d9e2ec;
      }

      .st22 {
        fill: #f0f6ff;
        stroke: #b7c9e2;
      }

      .st22, .st2, .st23, .st24, .st25, .st26 {
        stroke-width: 1.2px;
      }

      .st11 {
        fill: #102a43;
      }

      .st1 {
        stroke: #ad0118;
      }

      .st1, .st8, .st6 {
        stroke-width: 3px;
      }

      .st1, .st7 {
        stroke-dasharray: 12 12;
      }

      .st17, .st20, .st19 {
        font-size: 14px;
      }

      .st8 {
        fill: #f7fafc;
      }

      .st2 {
        stroke-dasharray: 6 8;
      }

      .st27 {
        fill: #ad0118;
      }

      .st14, .st19 {
        fill: #52606d;
      }

      .st28 {
        fill: #22232a;
      }

      .st3 {
        stroke: #229a2a;
      }

      .st23 {
        fill: #fff7e8;
        stroke: #ebc982;
      }

      .st24 {
        fill: #fff1ef;
        stroke: #e8b7ae;
      }

      .st25 {
        fill: #f4f6f8;
        stroke: #cbd5df;
      }

      .st29 {
        fill: #1f4e79;
      }

      .st15 {
        fill: #425466;
      }

      .st26 {
        fill: #eef8f1;
        stroke: #b7d9c4;
      }

      .st30 {
        fill: #229a2a;
      }

      .st21 {
        font-size: 21px;
      }
    </style>
  </defs>
  <rect class="st8" width="1440" height="980"/>
  <g class="st18">
    <text class="st21" transform="translate(60 62)"><tspan x="0" y="0">Kikubot Architecture</tspan></text>
  </g>
  <text class="st19" transform="translate(60 91)"><tspan x="0" y="0">Email-driven multi-agent runtime: each container is one inbox-backed agent, configured by roster, external peers, secrets, knowledge, tools, and provider adapters.</tspan></text>
  <rect class="st2" x="40" y="120" width="1360" height="720"/>
  <g class="st18">
    <text class="st20" transform="translate(60 151)"><tspan x="0" y="0">Deployment shape</tspan></text>
  </g>
  <rect class="st16" x="70" y="176" width="220" height="154"/>
  <text class="st11" transform="translate(96 224)"><tspan x="0" y="0">Humans and systems</tspan></text>
  <text class="st15" transform="translate(96 252)"><tspan x="0" y="0">Send requests by email</tspan></text>
  <text class="st15" transform="translate(96 274)"><tspan x="0" y="0">Receive replies and bounces</tspan></text>
  <text class="st15" transform="translate(96 296)"><tspan x="0" y="0">Can follow agent threads</tspan></text>
  <circle class="st29" cx="96" cy="312" r="14"/>
  <text class="st9" transform="translate(91.7 315)"><tspan x="0" y="0">1</tspan></text>
  <rect class="st26" x="70" y="350" width="220" height="99.3"/>
  <text class="st11" transform="translate(96 379)"><tspan x="0" y="0">External partner agents</tspan></text>
  <text class="st15" transform="translate(96 405)"><tspan x="0" y="0">Other machines or domains</tspan></text>
  <text class="st15" transform="translate(96 427)"><tspan x="0" y="0">Reachable when rostered</tspan></text>
  <rect class="st22" x="340" y="174" width="250" height="205"/>
  <text class="st11" transform="translate(368 209)"><tspan x="0" y="0">IMAP / SMTP mail server</tspan></text>
  <text class="st15" transform="translate(368 237)"><tspan x="0" y="0">Universal async message bus</tspan></text>
  <text class="st15" transform="translate(368 259)"><tspan x="0" y="0">One mailbox per agent identity</tspan></text>
  <text class="st15" transform="translate(368 281)"><tspan x="0" y="0">Threads carry history with</tspan></text>
  <text class="st13" transform="translate(368 304)"><tspan x="0" y="0">References / In-Reply-To</tspan></text>
  <text class="st15" transform="translate(368 329)"><tspan x="0" y="0">Optional docker-mailserver sidecar</tspan></text>
  <circle class="st29" cx="368" cy="350" r="14"/>
  <text class="st9" transform="translate(364.7 353)"><tspan x="0" y="0">2</tspan></text>
  <rect class="st16" x="660" y="150" width="510" height="534"/>
  <text class="st17" transform="translate(690 186)"><tspan x="0" y="0">One kikubot container</tspan></text>
  <text class="st14" transform="translate(971.1 177.3)"><tspan x="0" y="0">same Go binary for all agents</tspan></text>
  <rect class="st25" x="690" y="215" width="205" height="84"/>
  <text class="st11" transform="translate(716 242)"><tspan x="0" y="0">Startup</tspan></text>
  <text class="st15" transform="translate(716 266)"><tspan x="0" y="0">Load env, roster, external peers</tspan></text>
  <text class="st12" transform="translate(716 286)"><tspan x="0" y="0">AGENT_EMAIL -&gt; agent config</tspan></text>
  <circle class="st29" cx="871" cy="242" r="14"/>
  <text class="st9" transform="translate(867.7 245)"><tspan x="0" y="0">3</tspan></text>
  <rect class="st22" x="935" y="215" width="205" height="84"/>
  <text class="st11" transform="translate(961 242)"><tspan x="0" y="0">Poll loop</tspan></text>
  <text class="st15" transform="translate(961 266)"><tspan x="0" y="0">Every 30 seconds</tspan></text>
  <text class="st15" transform="translate(961 286)"><tspan x="0" y="0">Fetch unseen INBOX mail</tspan></text>
  <rect class="st24" x="690" y="330" width="205" height="98"/>
  <text class="st11" transform="translate(716 357)"><tspan x="0" y="0">Guards</tspan></text>
  <text class="st15" transform="translate(716 381)"><tspan x="0" y="0">Auto-replies bypass LLM</tspan></text>
  <text class="st15" transform="translate(716 403)"><tspan x="0" y="0">ACL bounces unauthorized mail</tspan></text>
  <circle class="st29" cx="871" cy="357" r="14"/>
  <text class="st9" transform="translate(867.7 360)"><tspan x="0" y="0">4</tspan></text>
  <rect class="st23" x="935" y="330" width="205" height="98"/>
  <text class="st11" transform="translate(961 357)"><tspan x="0" y="0">Thread state</tspan></text>
  <text class="st15" transform="translate(961 381)"><tspan x="0" y="0">Resolve root message ID</tspan></text>
  <text class="st15" transform="translate(961 403)"><tspan x="0" y="0">Load memory and status</tspan></text>
  <circle class="st29" cx="1116" cy="357" r="14"/>
  <text class="st9" transform="translate(1112.6631 360)"><tspan x="0" y="0">5</tspan></text>
  <rect class="st26" x="690" y="462" width="205" height="112"/>
  <text class="st11" transform="translate(716 489)"><tspan x="0" y="0">Prompt builder</tspan></text>
  <text class="st15" transform="translate(716 513)"><tspan x="0" y="0">System prompt</tspan></text>
  <text class="st15" transform="translate(716 535)"><tspan x="0" y="0">Local + external coworkers</tspan></text>
  <text class="st15" transform="translate(716 557)"><tspan x="0" y="0">Knowledge + tool instructions</tspan></text>
  <circle class="st29" cx="871" cy="489" r="14"/>
  <text class="st9" transform="translate(867.7 492)"><tspan x="0" y="0">6</tspan></text>
  <rect class="st22" x="935" y="462" width="205" height="112"/>
  <text class="st11" transform="translate(961 489)"><tspan x="0" y="0">Agent loop</tspan></text>
  <text class="st15" transform="translate(961 513)"><tspan x="0" y="0">Call provider</tspan></text>
  <text class="st15" transform="translate(961 535)"><tspan x="0" y="0">Execute tool_use blocks</tspan></text>
  <text class="st15" transform="translate(961 557)"><tspan x="0" y="0">Repeat until end_turn</tspan></text>
  <circle class="st29" cx="1116" cy="489" r="14"/>
  <text class="st9" transform="translate(1112.6631 492)"><tspan x="0" y="0">7</tspan></text>
  <rect class="st25" x="690" y="604" width="450" height="52.5"/>
  <text class="st15" transform="translate(716 631)"><tspan x="0" y="0">Mark seen after success, preserve history after errors, retry up to configured</tspan><tspan x="0" y="14.4">budget.</tspan></text>
  <rect class="st16" x="70" y="460" width="250" height="231.6"/>
  <text class="st11" transform="translate(98 494)"><tspan x="0" y="0">Configuration inputs</tspan></text>
  <line class="st5" x1="98" y1="509" x2="292" y2="509"/>
  <text class="st13" transform="translate(98 535)"><tspan x="0" y="0">configs/agents.yaml</tspan></text>
  <text class="st15" transform="translate(98 556)"><tspan x="0" y="0">Local roster, defaults, tools</tspan></text>
  <text class="st15" transform="translate(98 577)"><tspan x="0" y="0">external: identity-only peers</tspan></text>
  <text class="st13" transform="translate(98 605)"><tspan x="0" y="0">configs/secrets.env</tspan></text>
  <text class="st15" transform="translate(98 626)"><tspan x="0" y="0">Provider, mailbox, SaaS credentials</tspan></text>
  <text class="st13" transform="translate(98 654)"><tspan x="0" y="0">configs/knowledge/*</tspan></text>
  <text class="st15" transform="translate(120.6 684)"><tspan x="0" y="0">Common and per-agent markdown</tspan></text>
  <rect class="st16" x="360" y="455" width="230" height="236.6"/>
  <text class="st11" transform="translate(388 489)"><tspan x="0" y="0">Persistent data volume</tspan></text>
  <line class="st5" x1="388" y1="504" x2="562" y2="504"/>
  <g>
    <path class="st6" d="M1140,506.8s16.2-34.4,20.2-48.8c8.3-29.7,11.7-114,20.6-143.5,8-26.4,14.8-40.7,22.1-50.4"/>
    <polygon class="st28" points="1207.3 270.7 1210 256 1195.9 261.1 1207.3 270.7"/>
  </g>
  <text class="st12" transform="translate(388 530)"><tspan x="0" y="0">data/memory/*.json</tspan></text>
  <text class="st15" transform="translate(388 551)"><tspan x="0" y="0">Per-thread conversation history</tspan></text>
  <g class="st18">
    <text class="st10" transform="translate(388 579)"><tspan x="0" y="0">data/snooze.json</tspan></text>
  </g>
  <text class="st15" transform="translate(388 600)"><tspan x="0" y="0">Scheduled replay tasks</tspan></text>
  <g class="st18">
    <text class="st10" transform="translate(388 628)"><tspan x="0" y="0">thread_index</tspan></text>
  </g>
  <text class="st15" transform="translate(388 649)"><tspan x="0" y="0">Outlook fallback mapping</tspan></text>
  <rect class="st16" x="1210" y="174" width="170" height="170"/>
  <g class="st18">
    <text class="st20" transform="translate(1234 209)"><tspan x="0" y="0">LLM providers</tspan></text>
  </g>
  <text class="st15" transform="translate(1234 237)"><tspan x="0" y="0">Anthropic Messages API</tspan></text>
  <text class="st15" transform="translate(1234 259)"><tspan x="0" y="0">OpenRouter adapter</tspan></text>
  <text class="st15" transform="translate(1234 281)"><tspan x="0" y="0">Provider-neutral tool</tspan></text>
  <text class="st15" transform="translate(1234 303)"><tspan x="0" y="0">schema from agent loop</tspan></text>
  <rect class="st16" x="1210" y="395" width="170" height="220"/>
  <g class="st18">
    <text class="st20" transform="translate(1234 430)"><tspan x="0" y="0">Tool surface</tspan></text>
  </g>
  <text class="st15" transform="translate(1234 458)"><tspan x="0" y="0">Core tools always on</tspan></text>
  <text class="st15" transform="translate(1234 480)"><tspan x="0" y="0">Configured tools by key</tspan></text>
  <text class="st15" transform="translate(1234 502)"><tspan x="0" y="0">Local tools and CLIs</tspan></text>
  <text class="st15" transform="translate(1234 524)"><tspan x="0" y="0">MCP bridges</tspan></text>
  <text class="st15" transform="translate(1234 546)"><tspan x="0" y="0">message_tool peer gate</tspan></text>
  <text class="st15" transform="translate(1234 568)"><tspan x="0" y="0">Sidecars and SaaS APIs</tspan></text>
  <circle class="st29" cx="1355" cy="430" r="14"/>
  <text class="st9" transform="translate(1351.6631 433)"><tspan x="0" y="0">8</tspan></text>
  <rect class="st2" x="70" y="705" width="1310" height="95"/>
  <g class="st18">
    <text class="st20" transform="translate(96 737)"><tspan x="0" y="0">Common integrations behind tools</tspan></text>
  </g>
  <rect class="st26" x="96" y="755" width="142" height="28"/>
  <text class="st14" transform="translate(120 774)"><tspan x="0" y="0">Salesforce</tspan></text>
  <rect class="st26" x="252" y="755" width="142" height="28"/>
  <text class="st14" transform="translate(276 774)"><tspan x="0" y="0">WordPress</tspan></text>
  <rect class="st26" x="408" y="755" width="142" height="28"/>
  <text class="st14" transform="translate(432 774)"><tspan x="0" y="0">Buffer</tspan></text>
  <rect class="st26" x="564" y="755" width="142" height="28"/>
  <text class="st14" transform="translate(588 774)"><tspan x="0" y="0">Helpjuice</tspan></text>
  <rect class="st26" x="720" y="755" width="142" height="28"/>
  <text class="st14" transform="translate(744 774)"><tspan x="0" y="0">Box CLI</tspan></text>
  <rect class="st26" x="876" y="755" width="142" height="28"/>
  <text class="st14" transform="translate(900 774)"><tspan x="0" y="0">Tavily</tspan></text>
  <rect class="st26" x="1032" y="755" width="142" height="28"/>
  <text class="st14" transform="translate(1056 774)"><tspan x="0" y="0">Xero</tspan></text>
  <rect class="st26" x="1188" y="755" width="142" height="28"/>
  <text class="st14" transform="translate(1212 774)"><tspan x="0" y="0">Tika / OCR</tspan></text>
  <rect class="st16" x="70" y="848" width="1310" height="104"/>
  <g class="st18">
    <text class="st20" transform="translate(96 890)"><tspan x="0" y="0">Agent collaboration model</tspan></text>
  </g>
  <text class="st15" transform="translate(96 916)"><tspan x="0" y="0">Coordinator and specialist agents are peers. Delegation is just another email thread sent by the message tool, so SMTP/IMAP provide identity, durability, auditability, and backpressure.</tspan></text>
  <text class="st15" transform="translate(96 938)"><tspan x="0" y="0">External peers from agents.yaml are rendered into {{coworkers}} with scope=&quot;external&quot;; exact rostered addresses bypass the same-domain send gate, while inbound mail still needs whitelist coverage.</tspan></text>
  <circle class="st29" cx="1352" cy="890" r="14"/>
  <text class="st9" transform="translate(1348.6631 893)"><tspan x="0" y="0">9</tspan></text>
  <text class="st14" transform="translate(521.9 193)"><tspan x="0" y="0">poll / fetch</tspan></text>
  <text class="st14" transform="translate(430.8 686.5)"><tspan x="0" y="0">save memory, snooze, status</tspan></text>
  <text class="st14" transform="translate(148.7 445)"><tspan x="0" y="0">external address allowlist</tspan></text>
  <text class="st14" transform="translate(1149.1739 455.403) rotate(-80.6099)"><tspan x="0" y="0">tool schema + messages</tspan></text>
  <text class="st14" transform="translate(1194.959 485.2637) rotate(-83.7669)"><tspan x="0" y="0">provider response</tspan></text>
  <text class="st14" transform="translate(979.4 748.9) rotate(-54.4)"><tspan x="0" y="0">same domain or </tspan><tspan x="0" y="14.4">known peer only</tspan></text>
  <g>
    <line class="st4" x1="290" y1="230.8" x2="332.8" y2="230.8"/>
    <polygon class="st28" points="331.4 235.8 340 230.8 331.4 225.8 331.4 235.8"/>
  </g>
  <g>
    <line class="st4" x1="590" y1="235.8" x2="652.8" y2="235.8"/>
    <polygon class="st28" points="651.4 240.8 660 235.8 651.4 230.8 651.4 240.8"/>
  </g>
  <g>
    <path class="st4" d="M1140,506.8s16.2-34.4,20.2-48.8c8.3-29.7,11.7-114,20.6-143.5,8.8-29,16.2-43.4,24.3-53.2"/>
    <polygon class="st28" points="1208 265.8 1210 256 1200.5 259.1 1208 265.8"/>
  </g>
  <g>
    <line class="st4" x1="895" y1="257" x2="927.8" y2="257"/>
    <polygon class="st28" points="926.4 262 935 257 926.4 252 926.4 262"/>
  </g>
  <g>
    <line class="st4" x1="895" y1="515.5" x2="927.8" y2="515.5"/>
    <polygon class="st28" points="926.4 520.5 935 515.5 926.4 510.5 926.4 520.5"/>
  </g>
  <g>
    <line class="st4" x1="1037.5" y1="300.2" x2="1037.5" y2="321.6"/>
    <polygon class="st28" points="1032.5 320.1 1037.5 328.8 1042.5 320.1 1032.5 320.1"/>
  </g>
  <g>
    <line class="st4" x1="792.5" y1="429.8" x2="792.5" y2="451.1"/>
    <polygon class="st28" points="787.5 449.6 792.5 458.2 797.5 449.6 787.5 449.6"/>
  </g>
  <g>
    <line class="st4" x1="1028.5" y1="574.8" x2="1028.5" y2="596.1"/>
    <polygon class="st28" points="1023.5 594.6 1028.5 603.2 1033.5 594.6 1023.5 594.6"/>
  </g>
  <g>
    <line class="st4" x1="1320.3" y1="615" x2="1320.3" y2="697.8"/>
    <polygon class="st28" points="1315.3 696.4 1320.3 705 1325.3 696.4 1315.3 696.4"/>
  </g>
  <g>
    <line class="st4" x1="935" y1="379" x2="902.2" y2="379"/>
    <polygon class="st28" points="903.6 374 895 379 903.6 384 903.6 374"/>
  </g>
  <g>
    <path class="st4" d="M1210,305.5s-.8,2-2.1,5.6"/>
    <path class="st0" d="M1204.2,322.5c-2.6,8.7-5.7,20.6-8.1,34.7-7.7,44.6-13.4,107.8-16.9,131.9-2.6,17.4-12.3,27.3-21.4,32.9"/>
    <path class="st4" d="M1152.5,524.8c-2,.9-3.9,1.7-5.6,2.2"/>
    <polygon class="st28" points="1147 521.7 1140 528.8 1149.6 531.3 1147 521.7"/>
  </g>
  <g>
    <path class="st4" d="M1140,557s16.7,5.1,26.4-6.2c16.1-18.7,23.8-17,36.4-16.1"/>
    <polygon class="st28" points="1201.1 539.6 1210 535 1201.6 529.6 1201.1 539.6"/>
  </g>
  <g>
    <path class="st7" d="M1050.4,684s-12.9,61.2-78.9,106.6c-71.2,49-137.6,67.4-255.5,84-32,4.5-114.7,1.4-139.6.3"/>
    <polygon class="st28" points="578.1 870 569.3 874.6 577.7 880 578.1 870"/>
  </g>
  <g>
    <path class="st7" d="M554.6,874.6s-122-28.6-172.6-94.1c-46.8-60.5-73.6-243.1-74.8-320-.9-63.1-.1-92.4,22.1-114.3"/>
    <polygon class="st28" points="331.7 350.9 334.7 341.4 324.9 343.6 331.7 350.9"/>
  </g>
  <g>
    <path class="st1" d="M690,403s-139.3,16.2-185,19.7c-55.1,4.3-183.4,16.8-213-17.7-17.9-20.9-22.1-48.1-23-62.8"/>
    <polygon class="st27" points="276.6 344.2 268.8 331.4 261.7 344.5 276.6 344.2"/>
  </g>
  <g>
    <path class="st4" d="M660,642.8s-21.1-1.3-37.4-35.3c-19.3-40.2.1-116.2-46.8-136.3-65.7-28.2-154.3-18.8-221.8-50.5-60-28.1-47-77.3-47-91.8s-7-31.7-12-37.9"/>
    <polygon class="st28" points="299.6 288.8 290 286 292.3 295.7 299.6 288.8"/>
  </g>
  <g>
    <path class="st3" d="M590,530s44.8-37.6,70-58.7c41.7-35,181.8-24.9,235-36.6,11.5-2.5,25.8-9.7,33.8-14.1"/>
    <polygon class="st30" points="929.9 425.6 935 417 925 416.8 929.9 425.6"/>
  </g>
  <g>
    <line class="st3" x1="590" y1="574" x2="683" y2="555"/>
    <polygon class="st30" points="682.5 560.1 690 553.5 680.5 550.4 682.5 560.1"/>
  </g>
  <g>
    <path class="st3" d="M320,485.3s28.6-34.2,45-46.5c38.6-28.7,163.8-48.7,204.3-74.8,35.1-22.6,40.7-37.2,55.9-57.5,20.8-27.7,45.7-35.6,57.7-37.9"/>
    <polygon class="st30" points="682.1 273.9 690 267.8 680.8 264 682.1 273.9"/>
  </g>
</svg>